<mxfile host="app.diagrams.net" modified="2023-07-05T07:42:32.597Z" agent="Mozilla/5.0 (Macintosh; Intel Mac OS X 10_15_7) AppleWebKit/605.1.15 (KHTML, like Gecko) Version/15.3 Safari/605.1.15" etag="FmTN0BewxFcHuW49C79N" version="21.4.0" type="github">
  <diagram id="C5RBs43oDa-KdzZeNtuy" name="Page-1">
    <mxGraphModel dx="1792" dy="697" grid="1" gridSize="10" guides="1" tooltips="1" connect="1" arrows="1" fold="1" page="1" pageScale="1" pageWidth="827" pageHeight="1169" math="0" shadow="0">
      <root>
        <mxCell id="WIyWlLk6GJQsqaUBKTNV-0" />
        <mxCell id="WIyWlLk6GJQsqaUBKTNV-1" parent="WIyWlLk6GJQsqaUBKTNV-0" />
        <mxCell id="hGps6JvvvFtfqvvxjzNR-3" style="edgeStyle=orthogonalEdgeStyle;rounded=0;orthogonalLoop=1;jettySize=auto;html=1;entryX=0.5;entryY=1;entryDx=0;entryDy=0;" edge="1" parent="WIyWlLk6GJQsqaUBKTNV-1" source="hGps6JvvvFtfqvvxjzNR-0" target="hGps6JvvvFtfqvvxjzNR-2">
          <mxGeometry relative="1" as="geometry" />
        </mxCell>
        <mxCell id="hGps6JvvvFtfqvvxjzNR-4" value="imp" style="edgeLabel;html=1;align=center;verticalAlign=middle;resizable=0;points=[];" vertex="1" connectable="0" parent="hGps6JvvvFtfqvvxjzNR-3">
          <mxGeometry x="0.175" y="2" relative="1" as="geometry">
            <mxPoint as="offset" />
          </mxGeometry>
        </mxCell>
        <mxCell id="hGps6JvvvFtfqvvxjzNR-0" value="ChangelogWithKeyFileStoreTable" style="rounded=1;whiteSpace=wrap;html=1;" vertex="1" parent="WIyWlLk6GJQsqaUBKTNV-1">
          <mxGeometry x="270" y="190" width="200" height="60" as="geometry" />
        </mxCell>
        <mxCell id="hGps6JvvvFtfqvvxjzNR-5" value="ref" style="edgeStyle=orthogonalEdgeStyle;rounded=0;orthogonalLoop=1;jettySize=auto;html=1;entryX=0;entryY=0.5;entryDx=0;entryDy=0;" edge="1" parent="WIyWlLk6GJQsqaUBKTNV-1" source="hGps6JvvvFtfqvvxjzNR-1" target="hGps6JvvvFtfqvvxjzNR-2">
          <mxGeometry relative="1" as="geometry" />
        </mxCell>
        <mxCell id="hGps6JvvvFtfqvvxjzNR-1" value="FileStoreSink&lt;br&gt;table" style="rounded=1;whiteSpace=wrap;html=1;" vertex="1" parent="WIyWlLk6GJQsqaUBKTNV-1">
          <mxGeometry x="100" y="50" width="120" height="60" as="geometry" />
        </mxCell>
        <mxCell id="hGps6JvvvFtfqvvxjzNR-2" value="FileStoreTable" style="rounded=1;whiteSpace=wrap;html=1;" vertex="1" parent="WIyWlLk6GJQsqaUBKTNV-1">
          <mxGeometry x="310" y="50" width="120" height="60" as="geometry" />
        </mxCell>
        <mxCell id="hGps6JvvvFtfqvvxjzNR-29" style="edgeStyle=orthogonalEdgeStyle;rounded=0;orthogonalLoop=1;jettySize=auto;html=1;entryX=0.5;entryY=0;entryDx=0;entryDy=0;" edge="1" parent="WIyWlLk6GJQsqaUBKTNV-1" source="hGps6JvvvFtfqvvxjzNR-6" target="hGps6JvvvFtfqvvxjzNR-27">
          <mxGeometry relative="1" as="geometry" />
        </mxCell>
        <mxCell id="hGps6JvvvFtfqvvxjzNR-31" value="implementation" style="edgeLabel;html=1;align=center;verticalAlign=middle;resizable=0;points=[];" vertex="1" connectable="0" parent="hGps6JvvvFtfqvvxjzNR-29">
          <mxGeometry x="-0.8286" y="-3" relative="1" as="geometry">
            <mxPoint as="offset" />
          </mxGeometry>
        </mxCell>
        <mxCell id="hGps6JvvvFtfqvvxjzNR-6" value="StoreSinkWriteImpl" style="rounded=1;whiteSpace=wrap;html=1;" vertex="1" parent="WIyWlLk6GJQsqaUBKTNV-1">
          <mxGeometry x="560" y="510" width="120" height="60" as="geometry" />
        </mxCell>
        <mxCell id="hGps6JvvvFtfqvvxjzNR-30" value="i" style="edgeStyle=orthogonalEdgeStyle;rounded=0;orthogonalLoop=1;jettySize=auto;html=1;entryX=0.5;entryY=0;entryDx=0;entryDy=0;" edge="1" parent="WIyWlLk6GJQsqaUBKTNV-1" source="hGps6JvvvFtfqvvxjzNR-7" target="hGps6JvvvFtfqvvxjzNR-27">
          <mxGeometry relative="1" as="geometry" />
        </mxCell>
        <mxCell id="hGps6JvvvFtfqvvxjzNR-32" value="implementation" style="edgeLabel;html=1;align=center;verticalAlign=middle;resizable=0;points=[];" vertex="1" connectable="0" parent="hGps6JvvvFtfqvvxjzNR-30">
          <mxGeometry x="-0.8118" y="-2" relative="1" as="geometry">
            <mxPoint as="offset" />
          </mxGeometry>
        </mxCell>
        <mxCell id="hGps6JvvvFtfqvvxjzNR-7" value="GlobalFullCompactionSinkWrite" style="rounded=1;whiteSpace=wrap;html=1;" vertex="1" parent="WIyWlLk6GJQsqaUBKTNV-1">
          <mxGeometry x="730" y="510" width="120" height="60" as="geometry" />
        </mxCell>
        <mxCell id="hGps6JvvvFtfqvvxjzNR-8" value="DataStreamSink" style="rounded=1;whiteSpace=wrap;html=1;" vertex="1" parent="WIyWlLk6GJQsqaUBKTNV-1">
          <mxGeometry x="50" y="340" width="120" height="60" as="geometry" />
        </mxCell>
        <mxCell id="hGps6JvvvFtfqvvxjzNR-12" value="sinkFrom" style="edgeStyle=orthogonalEdgeStyle;rounded=0;orthogonalLoop=1;jettySize=auto;html=1;entryX=0;entryY=0.5;entryDx=0;entryDy=0;" edge="1" parent="WIyWlLk6GJQsqaUBKTNV-1" source="hGps6JvvvFtfqvvxjzNR-9" target="hGps6JvvvFtfqvvxjzNR-10">
          <mxGeometry relative="1" as="geometry" />
        </mxCell>
        <mxCell id="hGps6JvvvFtfqvvxjzNR-9" value="FlinkSink" style="rounded=1;whiteSpace=wrap;html=1;" vertex="1" parent="WIyWlLk6GJQsqaUBKTNV-1">
          <mxGeometry x="30" y="640" width="120" height="60" as="geometry" />
        </mxCell>
        <mxCell id="hGps6JvvvFtfqvvxjzNR-17" style="edgeStyle=orthogonalEdgeStyle;rounded=0;orthogonalLoop=1;jettySize=auto;html=1;entryX=0.5;entryY=0;entryDx=0;entryDy=0;" edge="1" parent="WIyWlLk6GJQsqaUBKTNV-1" source="hGps6JvvvFtfqvvxjzNR-10" target="hGps6JvvvFtfqvvxjzNR-11">
          <mxGeometry relative="1" as="geometry" />
        </mxCell>
        <mxCell id="hGps6JvvvFtfqvvxjzNR-21" value="" style="edgeStyle=orthogonalEdgeStyle;rounded=0;orthogonalLoop=1;jettySize=auto;html=1;" edge="1" parent="WIyWlLk6GJQsqaUBKTNV-1" source="hGps6JvvvFtfqvvxjzNR-10" target="hGps6JvvvFtfqvvxjzNR-20">
          <mxGeometry relative="1" as="geometry" />
        </mxCell>
        <mxCell id="hGps6JvvvFtfqvvxjzNR-10" value="createWriteOperator" style="rounded=1;whiteSpace=wrap;html=1;" vertex="1" parent="WIyWlLk6GJQsqaUBKTNV-1">
          <mxGeometry x="230" y="640" width="120" height="60" as="geometry" />
        </mxCell>
        <mxCell id="hGps6JvvvFtfqvvxjzNR-23" value="" style="edgeStyle=orthogonalEdgeStyle;rounded=0;orthogonalLoop=1;jettySize=auto;html=1;" edge="1" parent="WIyWlLk6GJQsqaUBKTNV-1" source="hGps6JvvvFtfqvvxjzNR-11" target="hGps6JvvvFtfqvvxjzNR-22">
          <mxGeometry relative="1" as="geometry" />
        </mxCell>
        <mxCell id="hGps6JvvvFtfqvvxjzNR-11" value="createCommitterOperator" style="rounded=1;whiteSpace=wrap;html=1;" vertex="1" parent="WIyWlLk6GJQsqaUBKTNV-1">
          <mxGeometry x="230" y="750" width="120" height="60" as="geometry" />
        </mxCell>
        <mxCell id="hGps6JvvvFtfqvvxjzNR-19" style="edgeStyle=orthogonalEdgeStyle;rounded=0;orthogonalLoop=1;jettySize=auto;html=1;entryX=0;entryY=0.5;entryDx=0;entryDy=0;" edge="1" parent="WIyWlLk6GJQsqaUBKTNV-1" source="hGps6JvvvFtfqvvxjzNR-18" target="hGps6JvvvFtfqvvxjzNR-9">
          <mxGeometry relative="1" as="geometry" />
        </mxCell>
        <mxCell id="hGps6JvvvFtfqvvxjzNR-18" value="FileStoreSink" style="rounded=1;whiteSpace=wrap;html=1;" vertex="1" parent="WIyWlLk6GJQsqaUBKTNV-1">
          <mxGeometry x="-150" y="640" width="120" height="60" as="geometry" />
        </mxCell>
        <mxCell id="hGps6JvvvFtfqvvxjzNR-28" value="" style="edgeStyle=orthogonalEdgeStyle;rounded=0;orthogonalLoop=1;jettySize=auto;html=1;" edge="1" parent="WIyWlLk6GJQsqaUBKTNV-1" source="hGps6JvvvFtfqvvxjzNR-20" target="hGps6JvvvFtfqvvxjzNR-27">
          <mxGeometry relative="1" as="geometry" />
        </mxCell>
        <mxCell id="hGps6JvvvFtfqvvxjzNR-35" value="ref" style="edgeLabel;html=1;align=center;verticalAlign=middle;resizable=0;points=[];" vertex="1" connectable="0" parent="hGps6JvvvFtfqvvxjzNR-28">
          <mxGeometry x="-0.075" y="2" relative="1" as="geometry">
            <mxPoint as="offset" />
          </mxGeometry>
        </mxCell>
        <mxCell id="hGps6JvvvFtfqvvxjzNR-20" value="RowDataStoreWriteOperator&lt;br&gt;StoreSink write" style="whiteSpace=wrap;html=1;rounded=1;" vertex="1" parent="WIyWlLk6GJQsqaUBKTNV-1">
          <mxGeometry x="430" y="640" width="120" height="60" as="geometry" />
        </mxCell>
        <mxCell id="hGps6JvvvFtfqvvxjzNR-22" value="CommiterOperator" style="whiteSpace=wrap;html=1;rounded=1;" vertex="1" parent="WIyWlLk6GJQsqaUBKTNV-1">
          <mxGeometry x="430" y="750" width="120" height="60" as="geometry" />
        </mxCell>
        <mxCell id="hGps6JvvvFtfqvvxjzNR-37" value="" style="edgeStyle=orthogonalEdgeStyle;rounded=0;orthogonalLoop=1;jettySize=auto;html=1;" edge="1" parent="WIyWlLk6GJQsqaUBKTNV-1" source="hGps6JvvvFtfqvvxjzNR-27" target="hGps6JvvvFtfqvvxjzNR-36">
          <mxGeometry relative="1" as="geometry" />
        </mxCell>
        <mxCell id="hGps6JvvvFtfqvvxjzNR-38" value="newTableWrite" style="edgeLabel;html=1;align=center;verticalAlign=middle;resizable=0;points=[];" vertex="1" connectable="0" parent="hGps6JvvvFtfqvvxjzNR-37">
          <mxGeometry x="-0.2" y="-5" relative="1" as="geometry">
            <mxPoint as="offset" />
          </mxGeometry>
        </mxCell>
        <mxCell id="hGps6JvvvFtfqvvxjzNR-27" value="StoreSinkWrite&lt;br&gt;TableWriteImpl write" style="whiteSpace=wrap;html=1;rounded=1;" vertex="1" parent="WIyWlLk6GJQsqaUBKTNV-1">
          <mxGeometry x="630" y="640" width="120" height="60" as="geometry" />
        </mxCell>
        <mxCell id="hGps6JvvvFtfqvvxjzNR-42" value="" style="edgeStyle=orthogonalEdgeStyle;rounded=0;orthogonalLoop=1;jettySize=auto;html=1;" edge="1" parent="WIyWlLk6GJQsqaUBKTNV-1" source="hGps6JvvvFtfqvvxjzNR-36" target="hGps6JvvvFtfqvvxjzNR-41">
          <mxGeometry relative="1" as="geometry" />
        </mxCell>
        <mxCell id="hGps6JvvvFtfqvvxjzNR-43" value="newWrite" style="edgeLabel;html=1;align=center;verticalAlign=middle;resizable=0;points=[];" vertex="1" connectable="0" parent="hGps6JvvvFtfqvvxjzNR-42">
          <mxGeometry x="-0.25" y="-3" relative="1" as="geometry">
            <mxPoint as="offset" />
          </mxGeometry>
        </mxCell>
        <mxCell id="hGps6JvvvFtfqvvxjzNR-36" value="TableWriteImpl" style="whiteSpace=wrap;html=1;rounded=1;" vertex="1" parent="WIyWlLk6GJQsqaUBKTNV-1">
          <mxGeometry x="890" y="640" width="120" height="60" as="geometry" />
        </mxCell>
        <mxCell id="hGps6JvvvFtfqvvxjzNR-45" value="" style="edgeStyle=orthogonalEdgeStyle;rounded=0;orthogonalLoop=1;jettySize=auto;html=1;" edge="1" parent="WIyWlLk6GJQsqaUBKTNV-1" source="hGps6JvvvFtfqvvxjzNR-41" target="hGps6JvvvFtfqvvxjzNR-44">
          <mxGeometry relative="1" as="geometry" />
        </mxCell>
        <mxCell id="hGps6JvvvFtfqvvxjzNR-41" value="ChangelogWithKeyFileStoreTable" style="whiteSpace=wrap;html=1;rounded=1;" vertex="1" parent="WIyWlLk6GJQsqaUBKTNV-1">
          <mxGeometry x="890" y="780" width="120" height="60" as="geometry" />
        </mxCell>
        <mxCell id="hGps6JvvvFtfqvvxjzNR-47" value="" style="edgeStyle=orthogonalEdgeStyle;rounded=0;orthogonalLoop=1;jettySize=auto;html=1;" edge="1" parent="WIyWlLk6GJQsqaUBKTNV-1" source="hGps6JvvvFtfqvvxjzNR-44" target="hGps6JvvvFtfqvvxjzNR-46">
          <mxGeometry relative="1" as="geometry" />
        </mxCell>
        <mxCell id="hGps6JvvvFtfqvvxjzNR-44" value="KeyValueFileStore" style="whiteSpace=wrap;html=1;rounded=1;" vertex="1" parent="WIyWlLk6GJQsqaUBKTNV-1">
          <mxGeometry x="1090" y="780" width="120" height="60" as="geometry" />
        </mxCell>
        <mxCell id="hGps6JvvvFtfqvvxjzNR-46" value="KeyValueFileStoreWrite" style="whiteSpace=wrap;html=1;rounded=1;" vertex="1" parent="WIyWlLk6GJQsqaUBKTNV-1">
          <mxGeometry x="1290" y="780" width="120" height="60" as="geometry" />
        </mxCell>
        <mxCell id="hGps6JvvvFtfqvvxjzNR-50" value="write" style="edgeStyle=orthogonalEdgeStyle;rounded=0;orthogonalLoop=1;jettySize=auto;html=1;" edge="1" parent="WIyWlLk6GJQsqaUBKTNV-1" source="hGps6JvvvFtfqvvxjzNR-48" target="hGps6JvvvFtfqvvxjzNR-49">
          <mxGeometry relative="1" as="geometry" />
        </mxCell>
        <mxCell id="hGps6JvvvFtfqvvxjzNR-48" value="RowDataStoreWriteOperator&lt;br&gt;" style="whiteSpace=wrap;html=1;rounded=1;" vertex="1" parent="WIyWlLk6GJQsqaUBKTNV-1">
          <mxGeometry x="-70" y="920" width="120" height="60" as="geometry" />
        </mxCell>
        <mxCell id="hGps6JvvvFtfqvvxjzNR-52" style="edgeStyle=orthogonalEdgeStyle;rounded=0;orthogonalLoop=1;jettySize=auto;html=1;" edge="1" parent="WIyWlLk6GJQsqaUBKTNV-1" source="hGps6JvvvFtfqvvxjzNR-49" target="hGps6JvvvFtfqvvxjzNR-51">
          <mxGeometry relative="1" as="geometry" />
        </mxCell>
        <mxCell id="hGps6JvvvFtfqvvxjzNR-49" value="StoreSinkWriteImpl" style="whiteSpace=wrap;html=1;rounded=1;" vertex="1" parent="WIyWlLk6GJQsqaUBKTNV-1">
          <mxGeometry x="160" y="920" width="120" height="60" as="geometry" />
        </mxCell>
        <mxCell id="hGps6JvvvFtfqvvxjzNR-54" value="" style="edgeStyle=orthogonalEdgeStyle;rounded=0;orthogonalLoop=1;jettySize=auto;html=1;" edge="1" parent="WIyWlLk6GJQsqaUBKTNV-1" source="hGps6JvvvFtfqvvxjzNR-51" target="hGps6JvvvFtfqvvxjzNR-53">
          <mxGeometry relative="1" as="geometry" />
        </mxCell>
        <mxCell id="hGps6JvvvFtfqvvxjzNR-51" value="AbstractFileStoreWrite" style="whiteSpace=wrap;html=1;rounded=1;" vertex="1" parent="WIyWlLk6GJQsqaUBKTNV-1">
          <mxGeometry x="350" y="920" width="120" height="60" as="geometry" />
        </mxCell>
        <mxCell id="hGps6JvvvFtfqvvxjzNR-56" value="" style="edgeStyle=orthogonalEdgeStyle;rounded=0;orthogonalLoop=1;jettySize=auto;html=1;" edge="1" parent="WIyWlLk6GJQsqaUBKTNV-1" source="hGps6JvvvFtfqvvxjzNR-53" target="hGps6JvvvFtfqvvxjzNR-55">
          <mxGeometry relative="1" as="geometry" />
        </mxCell>
        <mxCell id="hGps6JvvvFtfqvvxjzNR-57" value="put" style="edgeLabel;html=1;align=center;verticalAlign=middle;resizable=0;points=[];" vertex="1" connectable="0" parent="hGps6JvvvFtfqvvxjzNR-56">
          <mxGeometry x="-0.375" y="-4" relative="1" as="geometry">
            <mxPoint as="offset" />
          </mxGeometry>
        </mxCell>
        <mxCell id="hGps6JvvvFtfqvvxjzNR-59" value="changeLogFileWriter" style="edgeStyle=orthogonalEdgeStyle;rounded=0;orthogonalLoop=1;jettySize=auto;html=1;" edge="1" parent="WIyWlLk6GJQsqaUBKTNV-1" source="hGps6JvvvFtfqvvxjzNR-53" target="hGps6JvvvFtfqvvxjzNR-58">
          <mxGeometry relative="1" as="geometry">
            <mxPoint as="offset" />
          </mxGeometry>
        </mxCell>
        <mxCell id="hGps6JvvvFtfqvvxjzNR-61" style="edgeStyle=orthogonalEdgeStyle;rounded=0;orthogonalLoop=1;jettySize=auto;html=1;entryX=0;entryY=0.5;entryDx=0;entryDy=0;" edge="1" parent="WIyWlLk6GJQsqaUBKTNV-1" source="hGps6JvvvFtfqvvxjzNR-53" target="hGps6JvvvFtfqvvxjzNR-60">
          <mxGeometry relative="1" as="geometry">
            <Array as="points">
              <mxPoint x="530" y="950" />
              <mxPoint x="530" y="1180" />
            </Array>
          </mxGeometry>
        </mxCell>
        <mxCell id="hGps6JvvvFtfqvvxjzNR-62" value="rollingMergeTreeFileWriter" style="edgeLabel;html=1;align=center;verticalAlign=middle;resizable=0;points=[];" vertex="1" connectable="0" parent="hGps6JvvvFtfqvvxjzNR-61">
          <mxGeometry x="0.3111" y="2" relative="1" as="geometry">
            <mxPoint as="offset" />
          </mxGeometry>
        </mxCell>
        <mxCell id="hGps6JvvvFtfqvvxjzNR-53" value="MergeTreeWriter" style="whiteSpace=wrap;html=1;rounded=1;" vertex="1" parent="WIyWlLk6GJQsqaUBKTNV-1">
          <mxGeometry x="550" y="920" width="120" height="60" as="geometry" />
        </mxCell>
        <mxCell id="hGps6JvvvFtfqvvxjzNR-55" value="WriteBuffer" style="whiteSpace=wrap;html=1;rounded=1;" vertex="1" parent="WIyWlLk6GJQsqaUBKTNV-1">
          <mxGeometry x="750" y="920" width="120" height="60" as="geometry" />
        </mxCell>
        <mxCell id="hGps6JvvvFtfqvvxjzNR-64" value="" style="edgeStyle=orthogonalEdgeStyle;rounded=0;orthogonalLoop=1;jettySize=auto;html=1;" edge="1" parent="WIyWlLk6GJQsqaUBKTNV-1" source="hGps6JvvvFtfqvvxjzNR-58" target="hGps6JvvvFtfqvvxjzNR-63">
          <mxGeometry relative="1" as="geometry" />
        </mxCell>
        <mxCell id="hGps6JvvvFtfqvvxjzNR-67" value="newChangelogPath" style="edgeLabel;html=1;align=center;verticalAlign=middle;resizable=0;points=[];" vertex="1" connectable="0" parent="hGps6JvvvFtfqvvxjzNR-64">
          <mxGeometry x="-0.1" y="-2" relative="1" as="geometry">
            <mxPoint as="offset" />
          </mxGeometry>
        </mxCell>
        <mxCell id="hGps6JvvvFtfqvvxjzNR-58" value="RollingFIleWriter" style="whiteSpace=wrap;html=1;rounded=1;" vertex="1" parent="WIyWlLk6GJQsqaUBKTNV-1">
          <mxGeometry x="550" y="1040" width="120" height="60" as="geometry" />
        </mxCell>
        <mxCell id="hGps6JvvvFtfqvvxjzNR-66" value="" style="edgeStyle=orthogonalEdgeStyle;rounded=0;orthogonalLoop=1;jettySize=auto;html=1;" edge="1" parent="WIyWlLk6GJQsqaUBKTNV-1" source="hGps6JvvvFtfqvvxjzNR-60" target="hGps6JvvvFtfqvvxjzNR-65">
          <mxGeometry relative="1" as="geometry" />
        </mxCell>
        <mxCell id="hGps6JvvvFtfqvvxjzNR-68" value="newPath" style="edgeLabel;html=1;align=center;verticalAlign=middle;resizable=0;points=[];" vertex="1" connectable="0" parent="hGps6JvvvFtfqvvxjzNR-66">
          <mxGeometry x="-0.075" y="-1" relative="1" as="geometry">
            <mxPoint as="offset" />
          </mxGeometry>
        </mxCell>
        <mxCell id="hGps6JvvvFtfqvvxjzNR-60" value="RollingFileWriter" style="whiteSpace=wrap;html=1;rounded=1;" vertex="1" parent="WIyWlLk6GJQsqaUBKTNV-1">
          <mxGeometry x="550" y="1150" width="120" height="60" as="geometry" />
        </mxCell>
        <mxCell id="hGps6JvvvFtfqvvxjzNR-80" value="" style="edgeStyle=orthogonalEdgeStyle;rounded=0;orthogonalLoop=1;jettySize=auto;html=1;" edge="1" parent="WIyWlLk6GJQsqaUBKTNV-1" source="hGps6JvvvFtfqvvxjzNR-63" target="hGps6JvvvFtfqvvxjzNR-79">
          <mxGeometry relative="1" as="geometry" />
        </mxCell>
        <mxCell id="hGps6JvvvFtfqvvxjzNR-81" value="write" style="edgeLabel;html=1;align=center;verticalAlign=middle;resizable=0;points=[];" vertex="1" connectable="0" parent="hGps6JvvvFtfqvvxjzNR-80">
          <mxGeometry x="-0.025" y="-5" relative="1" as="geometry">
            <mxPoint as="offset" />
          </mxGeometry>
        </mxCell>
        <mxCell id="hGps6JvvvFtfqvvxjzNR-63" value="KeyValueDataFileWriter" style="whiteSpace=wrap;html=1;rounded=1;" vertex="1" parent="WIyWlLk6GJQsqaUBKTNV-1">
          <mxGeometry x="770" y="1040" width="120" height="60" as="geometry" />
        </mxCell>
        <mxCell id="hGps6JvvvFtfqvvxjzNR-65" value="KeyVaueDataFileWriter" style="whiteSpace=wrap;html=1;rounded=1;" vertex="1" parent="WIyWlLk6GJQsqaUBKTNV-1">
          <mxGeometry x="750" y="1150" width="120" height="60" as="geometry" />
        </mxCell>
        <mxCell id="hGps6JvvvFtfqvvxjzNR-75" value="" style="edgeStyle=orthogonalEdgeStyle;rounded=0;orthogonalLoop=1;jettySize=auto;html=1;" edge="1" parent="WIyWlLk6GJQsqaUBKTNV-1" source="hGps6JvvvFtfqvvxjzNR-69" target="hGps6JvvvFtfqvvxjzNR-71">
          <mxGeometry relative="1" as="geometry" />
        </mxCell>
        <mxCell id="hGps6JvvvFtfqvvxjzNR-69" value="KeyValueFileWritterFactory" style="whiteSpace=wrap;html=1;rounded=1;" vertex="1" parent="WIyWlLk6GJQsqaUBKTNV-1">
          <mxGeometry x="1241" y="910" width="120" height="60" as="geometry" />
        </mxCell>
        <mxCell id="hGps6JvvvFtfqvvxjzNR-77" value="" style="edgeStyle=orthogonalEdgeStyle;rounded=0;orthogonalLoop=1;jettySize=auto;html=1;" edge="1" parent="WIyWlLk6GJQsqaUBKTNV-1" source="hGps6JvvvFtfqvvxjzNR-71" target="hGps6JvvvFtfqvvxjzNR-76">
          <mxGeometry relative="1" as="geometry" />
        </mxCell>
        <mxCell id="hGps6JvvvFtfqvvxjzNR-78" value="createWriterFactory" style="edgeLabel;html=1;align=center;verticalAlign=middle;resizable=0;points=[];" vertex="1" connectable="0" parent="hGps6JvvvFtfqvvxjzNR-77">
          <mxGeometry x="-0.275" y="1" relative="1" as="geometry">
            <mxPoint as="offset" />
          </mxGeometry>
        </mxCell>
        <mxCell id="hGps6JvvvFtfqvvxjzNR-71" value="FileFormat" style="whiteSpace=wrap;html=1;rounded=1;" vertex="1" parent="WIyWlLk6GJQsqaUBKTNV-1">
          <mxGeometry x="1241" y="1020" width="120" height="60" as="geometry" />
        </mxCell>
        <mxCell id="hGps6JvvvFtfqvvxjzNR-76" value="FormatWriterFactorry" style="whiteSpace=wrap;html=1;rounded=1;" vertex="1" parent="WIyWlLk6GJQsqaUBKTNV-1">
          <mxGeometry x="1241" y="1140" width="120" height="60" as="geometry" />
        </mxCell>
        <mxCell id="hGps6JvvvFtfqvvxjzNR-79" value="KeyValueDataFileWriter&lt;br&gt;updateMinKey&lt;br&gt;updateMaxKey&lt;br&gt;updateMinSeqNumber&lt;br&gt;...." style="whiteSpace=wrap;html=1;rounded=1;" vertex="1" parent="WIyWlLk6GJQsqaUBKTNV-1">
          <mxGeometry x="970" y="1040" width="120" height="60" as="geometry" />
        </mxCell>
      </root>
    </mxGraphModel>
  </diagram>
</mxfile>
